<svg width="52" height="46" viewBox="0 0 52 46" fill="none" xmlns="http://www.w3.org/2000/svg">
<path d="M6.45285 10.1431C7.58485 12.1791 10.1518 12.9131 12.1868 11.7821C14.7318 10.3681 15.6488 7.1591 14.2358 4.6141C12.4688 1.4321 8.45685 0.2861 5.27485 2.0531C1.29985 4.2621 -0.133154 9.2771 2.07585 13.2531C4.83685 18.2241 13.0568 19.2531 18.7418 19.2531H51.2418" stroke="#394562" stroke-linecap="round" stroke-linejoin="round"/>
<path d="M6.45285 35.8335C7.58485 33.7975 10.1518 33.0635 12.1868 34.1945C14.7318 35.6085 15.6488 38.8175 14.2358 41.3625C12.4688 44.5445 8.45685 45.6895 5.27485 43.9235C1.29985 41.7135 -0.133154 36.6995 2.07585 32.7235C4.83685 27.7525 13.0568 26.7235 18.7418 26.7235H51.2418" stroke="#394562" stroke-linecap="round" stroke-linejoin="round"/>
</svg>
