<svg width="63" height="91" viewBox="0 0 63 91" fill="none" xmlns="http://www.w3.org/2000/svg">
<path fill-rule="evenodd" clip-rule="evenodd" d="M32.078 23.5434C27.238 23.5434 23.729 25.8424 23.729 31.7714H5.33702C5.09502 13.4994 17.437 4.54542 32.441 4.18342C56.763 3.57742 67.411 27.6564 54.827 47.1384L37.765 70.8554H62.933V90.2154H3.40002V86.9484L35.224 40.3624C39.459 34.6754 42.726 23.5434 32.078 23.5434Z" fill="#25304A"/>
<path fill-rule="evenodd" clip-rule="evenodd" d="M7.38953 82.2153L36.0495 40.2613C38.9985 36.2583 43.0405 27.8773 39.7875 21.4023C38.6895 19.2133 35.8045 15.5433 28.8275 15.5433C22.4405 15.5433 17.9305 18.5943 16.2285 23.7713H7.39653C9.73253 7.9753 24.4915 6.2983 29.3125 6.1823C29.5745 6.1753 29.8315 6.1723 30.0865 6.1723C38.7235 6.1723 45.7515 9.9803 49.3675 16.6193C53.3095 23.8603 52.5705 33.3163 47.4425 41.3233L24.7595 72.8553H54.6835V82.2153H7.38953Z" fill="white"/>
<path fill-rule="evenodd" clip-rule="evenodd" d="M28.9491 10.0082C21.2051 9.88721 14.6711 13.1542 11.8871 20.7772H13.2191C15.8811 13.8802 22.0521 10.8552 28.9491 11.0972C46.8571 11.4592 50.4871 26.9472 41.5331 40.0162L15.6381 77.8902H50.4871V76.6802H17.6961L42.6221 40.6212C52.1811 26.8272 47.8251 10.2492 28.9491 10.0082ZM28.8281 20.2932C23.9881 20.2932 20.4791 22.5922 20.4791 28.5212H2.08715C1.84515 10.2492 14.1871 1.29521 29.1911 0.933209C53.5121 0.327209 64.1611 24.4062 51.5771 43.8882L34.5151 67.6052H59.6831V86.9652H0.150146V83.6982L31.9741 37.1122C36.2091 31.4252 39.4761 20.2932 28.8281 20.2932Z" fill="#EF7B7B"/>
</svg>
