<svg width="57" height="20" viewBox="0 0 57 20" fill="none" xmlns="http://www.w3.org/2000/svg">
<path fill-rule="evenodd" clip-rule="evenodd" d="M37.018 10.2576C37.018 8.44859 36.1799 7.40362 34.2465 7.40362C33.3299 7.40362 32.5152 7.68295 31.6896 8.18404C31.5528 8.26729 31.3786 8.1677 31.3786 8.0043C31.3786 7.95528 31.395 7.90782 31.4253 7.87047C32.3714 6.70801 34.1151 5.62648 35.8899 5.62648C38.4678 5.62648 39.8205 7.23789 39.8205 9.73709V19.737H37.018V10.2576ZM27.8344 19.737H30.637V5.88947H27.8344V19.737ZM9.18355 10.2576C9.18355 8.44859 8.3455 7.40362 6.41208 7.40362C5.49552 7.40362 4.68157 7.68295 3.85596 8.18404C3.71836 8.26729 3.54422 8.1677 3.54422 8.0043C3.54422 7.95528 3.56054 7.90782 3.59164 7.87047C4.53775 6.70801 6.28148 5.62648 8.05553 5.62648C10.6342 5.62648 11.9869 7.23789 11.9869 9.73709V19.737H9.18355V10.2576ZM0 19.737H2.80257V5.88947H0V19.737ZM42.7467 19.7362H45.5174V5.88947H42.7467V19.7362ZM44.1352 3.85012C43.35 3.85012 42.7117 3.21131 42.7117 2.42545C42.7117 1.63803 43.35 1 44.1352 1C44.9219 1 45.5594 1.63803 45.5594 2.42545C45.5594 3.21131 44.9219 3.85012 44.1352 3.85012ZM49.3695 15.8217V6.84262H47.4438V5.88947H49.3695V1.94926H52.1402V5.88947H56V6.84262H52.1402V15.4607C52.1402 17.1709 52.3967 18.5644 54.0681 18.5644C54.8113 18.5644 55.3058 18.3956 55.6859 18.1972C55.8297 18.1217 56 18.2314 56 18.3964C56 18.4438 55.986 18.4897 55.9588 18.5279C55.4675 19.2071 54.61 20 52.8818 20C50.433 20 49.3695 18.5193 49.3695 15.8217ZM21.4216 17.9498C21.4472 18.0128 21.4402 18.0851 21.4006 18.1396C20.8261 18.9488 19.7486 20 17.9489 20C15.4674 20 14.4365 18.289 14.4365 16.6449C14.4365 14.6056 15.7892 13.7357 16.918 13.2424C17.5889 12.9622 19.5029 12.4752 21.1541 12.0604C21.2676 12.0324 21.3897 12.0955 21.4216 12.2114C21.4534 12.3312 21.3858 12.4433 21.2777 12.4814C20.173 12.8837 18.9712 13.559 18.2622 14.0002C17.7786 14.3286 17.1435 15.1704 17.1435 16.1843C17.1435 17.5662 17.627 18.5637 19.1733 18.5637C20.065 18.5637 20.6745 18.2174 21.1254 17.8688C21.2272 17.791 21.3734 17.8291 21.4216 17.9498ZM20.8813 5.62648C23.3309 5.62648 25.0381 6.67845 25.0381 9.27724V19.7362H22.2347V9.41963C22.2347 8.06421 21.2435 6.90954 19.9235 6.7617C19.129 6.673 18.3687 6.70257 17.7296 6.84729C17.5516 6.88775 17.5267 7.13674 17.6915 7.21455C18.2349 7.46898 18.612 8.0292 18.612 8.6789C18.612 9.65384 17.7638 10.4265 16.7804 10.2709C15.9882 10.1448 15.4332 9.44764 15.4549 8.62988C15.5023 6.80761 18.2381 5.66383 20.7234 5.63037C20.7763 5.62881 20.8292 5.62648 20.8813 5.62648Z" fill="#394562"/>
<mask id="mask0_0_537" style="mask-type:luminance" maskUnits="userSpaceOnUse" x="0" y="0" width="57" height="20">
<path fill-rule="evenodd" clip-rule="evenodd" d="M42.9187 2.08001C42.9187 2.85771 43.5582 3.48924 44.3468 3.48924C45.1378 3.48924 45.7781 2.85771 45.7781 2.08001C45.7781 1.30155 45.1378 0.670013 44.3468 0.670013C43.5582 0.670013 42.9187 1.30155 42.9187 2.08001ZM49.6041 1.61001V5.5054H47.6716V6.44694H49.6041V15.3246C49.6041 17.9908 50.6723 19.4554 53.1326 19.4554C54.8676 19.4554 55.7304 18.67 56.2231 17.9985C56.2513 17.9616 56.2637 17.9169 56.2637 17.8692C56.2637 17.7069 56.0927 17.5985 55.9491 17.6723C55.568 17.8685 55.0706 18.0346 54.3242 18.0346C52.6462 18.0346 52.3877 16.6585 52.3877 14.9677V6.44694H56.2637V5.5054H52.3877V1.61001H49.6041ZM31.582 7.46309C31.5507 7.50078 31.5351 7.54694 31.5351 7.5954C31.5351 7.75771 31.7092 7.8554 31.8474 7.77309C32.6759 7.27847 33.495 7.00155 34.4148 7.00155C36.3575 7.00155 37.1984 8.03463 37.1984 9.82309V19.1946H40.0148V9.30848C40.0148 6.83771 38.6554 5.2454 36.0662 5.2454C34.2836 5.2454 32.5322 6.31309 31.582 7.46309ZM20.8324 5.24771C18.3369 5.28155 15.5884 6.41309 15.5408 8.21463C15.5197 9.02232 16.0772 9.71155 16.8728 9.83617C17.8614 9.99001 18.7125 9.22694 18.7125 8.26309C18.7125 7.62078 18.3338 7.06694 17.788 6.8154C17.6224 6.73847 17.6466 6.49078 17.8262 6.45232C18.4681 6.30924 19.2317 6.27847 20.0297 6.36771C21.3548 6.51386 22.3519 7.6554 22.3519 8.99463V19.1939H25.1659V8.85386C25.1659 6.2854 23.4513 5.2454 20.9925 5.2454C20.9386 5.2454 20.8863 5.24694 20.8324 5.24771ZM3.62698 7.46309C3.59418 7.50078 3.57857 7.54694 3.57857 7.5954C3.57857 7.75771 3.75347 7.8554 3.89168 7.77309C4.72091 7.27847 5.53765 7.00155 6.45824 7.00155C8.40092 7.00155 9.24343 8.03463 9.24343 9.82309V19.1946H12.0583V9.30848C12.0583 6.83771 10.6989 5.2454 8.10968 5.2454C6.32706 5.2454 4.57646 6.31309 3.62698 7.46309ZM42.9523 19.1939H45.7359V5.5054H42.9523V19.1939ZM27.9753 19.1946H30.7902V5.5054H27.9753V19.1946ZM0.0187988 19.1946H2.83366V5.5054H0.0187988V19.1946ZM21.2657 11.6062C19.6073 12.0146 17.6849 12.4977 17.0103 12.7739C15.8781 13.2608 14.5187 14.1216 14.5187 16.1377C14.5187 17.7639 15.5548 19.4554 18.0464 19.4554C19.854 19.4554 20.9355 18.4162 21.5133 17.6146C21.5523 17.5608 21.5593 17.49 21.5343 17.4269C21.4859 17.3092 21.3384 17.27 21.2361 17.3477C20.7832 17.6931 20.1718 18.0346 19.2754 18.0346C17.7232 18.0346 17.2375 17.0492 17.2375 15.6823C17.2375 14.6808 17.8754 13.8477 18.3611 13.5223C19.074 13.0869 20.2803 12.42 21.3899 12.0216C21.4976 11.9846 21.5656 11.8731 21.5343 11.7546C21.5078 11.6592 21.4172 11.5992 21.3212 11.5992C21.3024 11.5992 21.2845 11.6016 21.2657 11.6062Z" fill="white"/>
</mask>
<g mask="url(#mask0_0_537)">
<path fill-rule="evenodd" clip-rule="evenodd" d="M-392.753 3623.08H1580.64V-1918.07H-392.753V3623.08Z" fill="#394562"/>
</g>
<mask id="mask1_0_537" style="mask-type:luminance" maskUnits="userSpaceOnUse" x="0" y="0" width="57" height="20">
<path fill-rule="evenodd" clip-rule="evenodd" d="M42.9187 2.08001C42.9187 2.85771 43.5582 3.48924 44.3468 3.48924C45.1378 3.48924 45.7781 2.85771 45.7781 2.08001C45.7781 1.30155 45.1378 0.670013 44.3468 0.670013C43.5582 0.670013 42.9187 1.30155 42.9187 2.08001ZM49.6041 1.61001V5.5054H47.6716V6.44694H49.6041V15.3246C49.6041 17.9908 50.6723 19.4554 53.1326 19.4554C54.8676 19.4554 55.7304 18.67 56.2231 17.9985C56.2513 17.9616 56.2637 17.9169 56.2637 17.8692C56.2637 17.7069 56.0927 17.5985 55.9491 17.6723C55.568 17.8685 55.0706 18.0346 54.3242 18.0346C52.6462 18.0346 52.3877 16.6585 52.3877 14.9677V6.44694H56.2637V5.5054H52.3877V1.61001H49.6041ZM31.582 7.46309C31.5507 7.50078 31.5351 7.54694 31.5351 7.5954C31.5351 7.75771 31.7092 7.8554 31.8474 7.77309C32.6759 7.27847 33.495 7.00155 34.4148 7.00155C36.3575 7.00155 37.1984 8.03463 37.1984 9.82309V19.1946H40.0148V9.30848C40.0148 6.83771 38.6554 5.2454 36.0662 5.2454C34.2836 5.2454 32.5322 6.31309 31.582 7.46309ZM20.8324 5.24771C18.3369 5.28155 15.5884 6.41309 15.5408 8.21463C15.5197 9.02232 16.0772 9.71155 16.8728 9.83617C17.8614 9.99001 18.7125 9.22694 18.7125 8.26309C18.7125 7.62078 18.3338 7.06694 17.788 6.8154C17.6224 6.73847 17.6466 6.49078 17.8262 6.45232C18.4681 6.30924 19.2317 6.27847 20.0297 6.36771C21.3548 6.51386 22.3519 7.6554 22.3519 8.99463V19.1939H25.1659V8.85386C25.1659 6.2854 23.4513 5.2454 20.9925 5.2454C20.9386 5.2454 20.8863 5.24694 20.8324 5.24771ZM3.62698 7.46309C3.59418 7.50078 3.57857 7.54694 3.57857 7.5954C3.57857 7.75771 3.75347 7.8554 3.89168 7.77309C4.72091 7.27847 5.53765 7.00155 6.45824 7.00155C8.40092 7.00155 9.24343 8.03463 9.24343 9.82309V19.1946H12.0583V9.30848C12.0583 6.83771 10.6989 5.2454 8.10968 5.2454C6.32706 5.2454 4.57646 6.31309 3.62698 7.46309ZM42.9523 19.1939H45.7359V5.5054H42.9523V19.1939ZM27.9753 19.1946H30.7902V5.5054H27.9753V19.1946ZM0.0187988 19.1946H2.83366V5.5054H0.0187988V19.1946ZM21.2657 11.6062C19.6073 12.0146 17.6849 12.4977 17.0103 12.7739C15.8781 13.2608 14.5187 14.1216 14.5187 16.1377C14.5187 17.7639 15.5548 19.4554 18.0464 19.4554C19.854 19.4554 20.9355 18.4162 21.5133 17.6146C21.5523 17.5608 21.5593 17.49 21.5343 17.4269C21.4859 17.3092 21.3384 17.27 21.2361 17.3477C20.7832 17.6931 20.1718 18.0346 19.2754 18.0346C17.7232 18.0346 17.2375 17.0492 17.2375 15.6823C17.2375 14.6808 17.8754 13.8477 18.3611 13.5223C19.074 13.0869 20.2803 12.42 21.3899 12.0216C21.4976 11.9846 21.5656 11.8731 21.5343 11.7546C21.507 11.6592 21.4172 11.5992 21.3212 11.5992C21.3024 11.5992 21.2845 11.6023 21.2657 11.6062Z" fill="white"/>
</mask>
<g mask="url(#mask1_0_537)">
<path fill-rule="evenodd" clip-rule="evenodd" d="M-4.7489 24.15H61.0314V-4.02536H-4.7489V24.15Z" fill="#394562"/>
</g>
</svg>
