<svg width="112" height="112" viewBox="0 0 112 112" fill="none" xmlns="http://www.w3.org/2000/svg">
<path fill-rule="evenodd" clip-rule="evenodd" d="M55.8142 108.572C84.9831 108.572 108.629 84.9263 108.629 55.7574C108.629 26.5885 84.9831 2.94141 55.8142 2.94141C26.6453 2.94141 3 26.5885 3 55.7574C3 84.9263 26.6453 108.572 55.8142 108.572Z" stroke="#FEBE21" stroke-width="4.92881"/>
<path d="M21.6309 56.6543C21.6309 56.6543 24.8922 54.3982 31.2338 54.3982C37.5763 54.3982 40.8358 56.6543 40.8358 56.6543" stroke="#FEBE21" stroke-width="4.92881" stroke-linecap="round"/>
<path d="M66.7044 77.465C66.7044 77.465 62.0431 81.7217 55.7015 81.7217C49.359 81.7217 44.6978 77.465 44.6978 77.465" stroke="#FEBE21" stroke-width="4.92881" stroke-linecap="round"/>
<path d="M69.5389 56.6543C69.5389 56.6543 72.7993 54.3982 79.1418 54.3982C85.4843 54.3982 88.7439 56.6543 88.7439 56.6543" stroke="#FEBE21" stroke-width="4.92881" stroke-linecap="round"/>
<path d="M54.5491 4.71579C54.5491 4.71579 47.5608 13.1778 50.9472 17.9198C54.3344 22.6618 62.9517 23.9207 66.5519 21.52" stroke="#FEBE21" stroke-width="4.92881" stroke-linecap="round"/>
</svg>
