<svg width="52" height="46" viewBox="0 0 52 46" fill="none" xmlns="http://www.w3.org/2000/svg">
<path d="M45.3268 10.1431C44.1958 12.1791 41.6288 12.9131 39.5928 11.7821C37.0478 10.3681 36.1308 7.1591 37.5448 4.6141C39.3108 1.4321 43.3228 0.2861 46.5048 2.0531C50.4808 4.2621 51.9138 9.2771 49.7038 13.2531C46.9428 18.2241 38.7228 19.2531 33.0378 19.2531H0.537842" stroke="#394562" stroke-linecap="round" stroke-linejoin="round"/>
<path d="M45.3268 35.8335C44.1958 33.7975 41.6288 33.0635 39.5928 34.1945C37.0478 35.6085 36.1308 38.8175 37.5448 41.3625C39.3108 44.5445 43.3228 45.6895 46.5048 43.9235C50.4808 41.7135 51.9138 36.6995 49.7038 32.7235C46.9428 27.7525 38.7228 26.7235 33.0378 26.7235H0.537842" stroke="#394562" stroke-linecap="round" stroke-linejoin="round"/>
</svg>
