<svg width="23" height="22" viewBox="0 0 23 22" fill="none" xmlns="http://www.w3.org/2000/svg">
<path fill-rule="evenodd" clip-rule="evenodd" d="M12 0H6L5 2H2C0.895431 2 0 2.89543 0 4V14C0 15.1046 0.89543 16 2 16H11.0264C11.2144 14.5893 12.3826 13.4886 13.8237 13.4051L14 13.4L14.999 13.399L15 12.6484C15 10.9916 16.3431 9.64844 18 9.64844V4C18 2.89543 17.1046 2 16 2H13L12 0ZM14 9C14 11.7614 11.7614 14 9 14C6.23858 14 4 11.7614 4 9C4 6.23858 6.23858 4 9 4C11.7614 4 14 6.23858 14 9ZM12 9C12 10.6569 10.6569 12 9 12C7.34315 12 6 10.6569 6 9C6 7.34315 7.34315 6 9 6C10.6569 6 12 7.34315 12 9Z" fill="white"/>
<path d="M18 11.6484C18.5128 11.6484 18.9355 12.0345 18.9933 12.5318L19 12.6484V15.399L22 15.4C22.5523 15.4 23 15.8477 23 16.4C23 16.9128 22.614 17.3355 22.1166 17.3933L22 17.4L19 17.399V20.6484C19 21.2007 18.5523 21.6484 18 21.6484C17.4872 21.6484 17.0645 21.2624 17.0067 20.7651L17 20.6484V17.399L14 17.4C13.4477 17.4 13 16.9523 13 16.4C13 15.8872 13.386 15.4645 13.8834 15.4067L14 15.4L16.999 15.399L17 12.6484C17 12.0962 17.4477 11.6484 18 11.6484Z" fill="white"/>
</svg>
